<?xml version="1.0" encoding="UTF-8" standalone="no"?>
<svg
   id="svg"
   version="1.1"
   width="400"
   height="400"
   viewBox="0, 0, 400,400"
   sodipodi:docname="sidebar-logo.svg"
   inkscape:version="1.2.2 (732a01da63, 2022-12-09)"
   xmlns:inkscape="http://www.inkscape.org/namespaces/inkscape"
   xmlns:sodipodi="http://sodipodi.sourceforge.net/DTD/sodipodi-0.dtd"
   xmlns="http://www.w3.org/2000/svg"
   xmlns:svg="http://www.w3.org/2000/svg">
  <defs
     id="defs11" />
  <sodipodi:namedview
     id="namedview9"
     pagecolor="#ffffff"
     bordercolor="#666666"
     borderopacity="1.0"
     inkscape:pageshadow="2"
     inkscape:pageopacity="0.0"
     inkscape:pagecheckerboard="0"
     showgrid="false"
     inkscape:zoom="2.2392792"
     inkscape:cx="36.842212"
     inkscape:cy="179.07548"
     inkscape:window-width="3440"
     inkscape:window-height="1369"
     inkscape:window-x="-8"
     inkscape:window-y="1042"
     inkscape:window-maximized="1"
     inkscape:current-layer="svgg"
     inkscape:showpageshadow="0"
     inkscape:deskcolor="#d1d1d1" />
  <g
     id="svgg">
    <path
       id="path1"
       d="M193.264 4.809 C 190.989 6.124,188.977 7.200,188.792 7.200 C 188.608 7.200,188.201 7.457,187.887 7.770 C 187.573 8.084,186.705 8.620,185.958 8.962 C 185.211 9.304,184.330 9.759,184.000 9.973 C 183.670 10.187,181.420 11.459,179.000 12.800 C 176.580 14.141,174.330 15.409,174.000 15.620 C 173.670 15.830,173.029 16.164,172.576 16.362 C 172.123 16.560,168.793 18.409,165.176 20.471 C 161.559 22.533,158.150 24.439,157.600 24.707 C 157.050 24.975,156.330 25.368,156.000 25.580 C 154.718 26.404,144.021 32.400,143.833 32.400 C 143.723 32.400,140.791 34.036,137.317 36.036 C 133.843 38.036,130.460 39.927,129.800 40.239 C 129.140 40.551,127.880 41.246,127.000 41.784 C 126.120 42.322,125.130 42.890,124.800 43.046 C 124.470 43.202,122.364 44.380,120.121 45.665 C 117.878 46.949,115.967 48.000,115.876 48.000 C 115.784 48.000,112.670 49.733,108.955 51.850 C 105.240 53.968,101.210 56.229,100.000 56.874 C 98.790 57.520,97.080 58.475,96.200 58.996 C 95.320 59.518,94.060 60.227,93.400 60.573 C 92.740 60.918,91.480 61.616,90.600 62.126 C 89.720 62.635,87.560 63.831,85.800 64.784 C 84.040 65.738,79.990 67.994,76.800 69.797 C 67.435 75.091,67.065 75.299,65.600 76.077 C 64.830 76.486,62.940 77.539,61.400 78.417 C 59.860 79.294,57.430 80.645,56.000 81.420 C 54.570 82.194,52.680 83.265,51.800 83.799 C 50.920 84.334,49.620 85.049,48.911 85.387 C 47.726 85.952,41.400 89.529,40.000 90.426 C 39.670 90.637,38.680 91.166,37.800 91.600 C 36.920 92.034,35.930 92.566,35.600 92.782 C 35.270 92.998,32.712 94.458,29.916 96.026 C 23.889 99.407,22.638 100.441,22.902 101.820 C 23.005 102.359,22.932 102.800,22.741 102.800 C 21.892 102.800,22.536 299.045,23.387 299.986 C 24.121 300.797,29.046 303.827,33.200 306.024 C 35.291 307.130,43.118 311.465,44.000 312.005 C 44.330 312.208,45.590 312.896,46.800 313.535 C 48.010 314.175,52.029 316.431,55.731 318.549 C 59.434 320.667,62.548 322.400,62.653 322.400 C 62.757 322.400,64.678 323.451,66.921 324.735 C 69.164 326.020,71.270 327.198,71.600 327.354 C 71.930 327.510,72.920 328.078,73.800 328.616 C 74.680 329.154,75.963 329.859,76.651 330.182 C 77.340 330.506,79.870 331.921,82.275 333.327 C 84.679 334.733,88.256 336.742,90.223 337.792 C 93.520 339.551,101.396 343.963,102.800 344.837 C 103.130 345.042,104.120 345.568,105.000 346.006 C 105.880 346.444,107.230 347.180,108.000 347.642 C 108.770 348.103,111.650 349.730,114.400 351.257 C 117.150 352.783,119.670 354.204,120.000 354.413 C 120.330 354.623,121.770 355.423,123.200 356.191 C 124.630 356.959,127.060 358.306,128.600 359.183 C 130.140 360.061,132.030 361.114,132.800 361.523 C 134.292 362.315,134.979 362.701,144.004 367.809 C 147.196 369.616,151.246 371.876,153.004 372.831 C 154.762 373.786,156.920 374.979,157.800 375.483 C 158.680 375.988,159.940 376.682,160.600 377.027 C 161.260 377.373,162.520 378.082,163.400 378.604 C 164.280 379.125,165.990 380.080,167.200 380.725 C 168.410 381.370,172.429 383.631,176.131 385.749 C 179.834 387.867,182.948 389.600,183.053 389.600 C 183.239 389.600,191.227 394.066,192.400 394.826 C 192.730 395.040,193.450 395.437,194.000 395.709 C 194.550 395.981,195.504 396.544,196.120 396.960 C 198.527 398.589,201.990 398.063,206.800 395.336 C 209.110 394.027,211.270 392.822,211.600 392.659 C 211.930 392.495,212.920 391.931,213.800 391.405 C 214.680 390.878,216.480 389.877,217.800 389.180 C 219.120 388.482,221.690 387.032,223.511 385.957 C 225.332 384.881,227.402 383.726,228.111 383.388 C 228.820 383.051,230.210 382.317,231.200 381.757 C 232.190 381.197,235.070 379.575,237.600 378.153 C 240.130 376.731,242.470 375.393,242.800 375.181 C 243.130 374.968,243.850 374.573,244.400 374.303 C 244.950 374.033,246.930 372.934,248.800 371.861 C 250.670 370.787,253.370 369.288,254.800 368.530 C 256.230 367.771,258.120 366.725,259.000 366.203 C 259.880 365.682,261.230 364.919,262.000 364.508 C 262.770 364.097,264.636 363.049,266.147 362.180 C 267.658 361.311,270.088 359.952,271.547 359.160 C 273.006 358.369,276.450 356.467,279.200 354.934 C 281.950 353.401,284.470 352.015,284.800 351.854 C 285.130 351.693,286.120 351.127,287.000 350.594 C 287.880 350.062,289.770 348.986,291.200 348.203 C 292.630 347.420,294.520 346.370,295.400 345.872 C 296.280 345.373,298.170 344.325,299.600 343.544 C 301.030 342.763,302.920 341.709,303.800 341.203 C 304.680 340.696,306.390 339.742,307.600 339.083 C 308.810 338.423,310.970 337.214,312.400 336.396 C 316.151 334.252,318.799 332.772,320.400 331.927 C 321.170 331.521,322.070 331.017,322.400 330.807 C 323.102 330.361,331.119 325.894,332.000 325.459 C 332.330 325.295,333.320 324.731,334.200 324.205 C 335.080 323.679,336.970 322.630,338.400 321.874 C 339.830 321.118,341.900 319.971,343.000 319.326 C 344.100 318.680,345.270 318.028,345.600 317.878 C 345.930 317.727,347.100 317.077,348.200 316.432 C 349.300 315.787,351.029 314.817,352.042 314.276 C 353.972 313.244,362.166 308.630,363.200 307.993 C 363.530 307.789,364.698 307.153,365.796 306.580 C 370.830 303.949,375.556 301.099,376.436 300.162 L 377.400 299.136 377.503 200.542 C 377.565 141.019,377.461 102.038,377.240 102.175 C 377.039 102.299,376.968 102.042,377.083 101.604 C 377.303 100.764,375.400 98.647,373.811 97.964 C 373.365 97.772,372.100 97.072,371.000 96.408 C 369.900 95.744,367.920 94.640,366.600 93.956 C 365.280 93.271,363.480 92.287,362.600 91.769 C 361.720 91.251,359.830 90.190,358.400 89.411 C 356.970 88.632,355.530 87.817,355.200 87.601 C 354.518 87.154,342.761 80.605,338.744 78.435 C 337.283 77.646,335.033 76.388,333.744 75.639 C 332.455 74.890,330.050 73.558,328.400 72.678 C 326.750 71.798,324.971 70.745,324.446 70.339 C 323.921 69.932,323.323 69.600,323.116 69.600 C 322.909 69.600,321.538 68.905,320.070 68.055 C 316.698 66.104,313.796 64.475,312.000 63.527 C 311.230 63.121,310.330 62.619,310.000 62.411 C 309.670 62.203,307.330 60.869,304.800 59.447 C 302.270 58.025,299.390 56.403,298.400 55.843 C 297.410 55.283,296.020 54.549,295.311 54.212 C 294.602 53.874,292.532 52.719,290.711 51.643 C 288.890 50.568,286.320 49.118,285.000 48.420 C 283.680 47.723,281.930 46.758,281.111 46.276 C 279.770 45.487,277.169 44.041,273.200 41.876 C 272.430 41.456,271.080 40.692,270.200 40.178 C 269.320 39.664,267.771 38.804,266.758 38.267 C 265.745 37.730,263.039 36.208,260.746 34.884 C 258.453 33.561,255.502 31.911,254.188 31.219 C 252.875 30.527,251.080 29.544,250.200 29.034 C 248.201 27.875,243.853 25.459,242.000 24.477 C 241.230 24.069,239.880 23.319,239.000 22.811 C 238.120 22.303,236.590 21.436,235.600 20.886 C 234.610 20.335,232.432 19.100,230.761 18.142 C 229.089 17.184,227.573 16.400,227.392 16.400 C 227.211 16.400,226.779 16.155,226.431 15.856 C 226.084 15.557,224.720 14.717,223.400 13.991 C 217.929 10.978,215.345 9.581,214.400 9.127 C 213.850 8.862,213.130 8.436,212.800 8.181 C 212.470 7.925,210.580 6.853,208.600 5.798 C 206.620 4.744,204.571 3.548,204.046 3.140 C 201.900 1.475,197.983 2.081,193.264 4.809 M200.400 92.923 C 203.413 93.950,204.663 91.783,181.147 126.288 C 161.726 154.783,148.079 174.857,138.673 188.762 C 134.893 194.350,131.323 199.435,130.740 200.062 L 129.679 201.200 103.440 201.200 C 77.515 201.200,77.190 201.190,76.380 200.380 C 75.079 199.079,74.215 200.544,89.326 178.400 C 91.653 174.990,95.262 169.680,97.346 166.600 C 101.966 159.774,111.948 145.083,120.728 132.187 C 124.318 126.914,131.475 116.390,136.632 108.800 C 146.568 94.177,147.500 92.953,148.909 92.681 C 151.202 92.238,199.051 92.462,200.400 92.923 M298.539 93.149 C 300.121 94.463,300.278 94.197,282.543 120.200 C 280.292 123.500,275.277 130.880,271.397 136.600 C 267.518 142.320,261.825 150.690,258.746 155.200 C 255.668 159.710,251.260 166.190,248.952 169.600 C 246.643 173.010,241.627 180.390,237.805 186.000 C 233.983 191.610,228.963 198.990,226.651 202.400 C 224.338 205.810,219.928 212.290,216.850 216.800 C 213.772 221.310,209.854 227.070,208.142 229.600 C 204.126 235.536,187.693 259.699,185.018 263.600 C 183.887 265.250,176.868 275.564,169.420 286.521 C 160.142 300.171,155.527 306.624,154.760 307.021 C 153.821 307.506,149.966 307.600,130.898 307.600 L 108.157 307.600 106.091 306.570 C 104.350 305.703,103.985 305.325,103.768 304.170 C 103.186 301.068,103.302 300.845,112.595 287.200 C 116.897 280.883,122.664 272.401,126.464 266.800 C 128.330 264.050,135.064 254.152,141.428 244.805 C 147.793 235.459,154.620 225.426,156.600 222.510 C 158.580 219.595,161.275 215.632,162.589 213.705 C 167.392 206.657,181.996 185.182,187.414 177.200 C 190.475 172.690,194.604 166.614,196.590 163.699 C 198.575 160.783,205.003 151.333,210.873 142.699 C 216.743 134.064,224.548 122.590,228.218 117.200 C 231.888 111.810,236.839 104.517,239.221 100.993 C 243.689 94.381,244.830 93.022,246.200 92.681 C 248.291 92.160,297.882 92.604,298.539 93.149 M377.100 248.300 C 377.043 274.865,376.997 253.130,376.997 200.000 C 376.997 146.870,377.043 125.135,377.100 151.700 C 377.157 178.265,377.157 221.735,377.100 248.300 M323.832 199.776 C 324.145 200.204,324.400 200.787,324.400 201.073 C 324.400 201.647,320.434 207.543,286.244 257.800 C 277.115 271.220,267.160 285.854,264.123 290.321 C 254.084 305.082,253.005 306.574,251.998 307.083 C 250.623 307.779,200.947 307.832,199.427 307.139 C 197.204 306.127,197.619 304.987,203.076 297.121 C 205.014 294.328,208.340 289.468,210.466 286.321 C 212.593 283.175,216.293 277.720,218.688 274.200 C 221.083 270.680,226.347 262.940,230.386 257.000 C 234.424 251.060,238.836 244.580,240.190 242.600 C 241.544 240.620,248.548 230.318,255.755 219.706 C 262.962 209.094,269.324 200.046,269.894 199.598 C 271.475 198.354,322.917 198.524,323.832 199.776 "
       stroke="none"
       fill="#ec3324"
       fill-rule="evenodd"
       style="fill:#ff0000;fill-opacity:1;stroke:#000000;stroke-opacity:1" />
  </g>
</svg>
